<?xml version="1.0" standalone="no"?>
<!DOCTYPE svg PUBLIC "-//W3C//DTD SVG 20010904//EN"
 "http://www.w3.org/TR/2001/REC-SVG-20010904/DTD/svg10.dtd">
<svg version="1.0" xmlns="http://www.w3.org/2000/svg"
 width="81.000000pt" height="81.000000pt" viewBox="0 0 81.000000 81.000000"
 preserveAspectRatio="xMidYMid meet">
<metadata>
Created by potrace 1.14, written by Peter Selinger 2001-2017
</metadata>
<g transform="translate(0.000000,81.000000) scale(0.100000,-0.100000)"
fill="#000000" stroke="none">
<path d="M320 701 c-85 -26 -165 -94 -199 -171 -28 -62 -28 -178 0 -240 26
-59 82 -115 144 -148 38 -19 70 -26 131 -30 73 -4 88 -1 140 22 123 56 184
148 184 276 -1 126 -58 215 -175 271 -49 24 -72 29 -130 28 -38 0 -81 -4 -95
-8z"/>
</g>
</svg>
