<svg width="24" height="24" viewBox="0 0 24 24" fill="none" xmlns="http://www.w3.org/2000/svg">
<path d="M1.25 7.25001C1.25 3.9363 3.93629 1.25001 7.25 1.25001H16.75C20.0637 1.25001 22.75 3.9363 22.75 7.25001V16.75C22.75 20.0637 20.0637 22.75 16.75 22.75H7.25C3.93629 22.75 1.25 20.0637 1.25 16.75V7.25001Z" fill="#BFBFBF"/>
<path fill-rule="evenodd" clip-rule="evenodd" d="M12.0248 6.32356C12.3578 6.32356 12.6277 6.59352 12.6277 6.92652L12.6277 16.8282C12.6277 17.1612 12.3577 17.4311 12.0247 17.4311C11.6917 17.4311 11.4218 17.1612 11.4218 16.8281L11.4218 6.92652C11.4218 6.59351 11.6918 6.32355 12.0248 6.32356Z" fill="black"/>
<path fill-rule="evenodd" clip-rule="evenodd" d="M17.8486 12.0042C17.8486 12.3551 17.5641 12.6396 17.2132 12.6396L6.77865 12.6395C6.42771 12.6395 6.14323 12.355 6.14323 12.0041C6.14323 11.6532 6.42772 11.3687 6.77865 11.3687L17.2132 11.3687C17.5641 11.3687 17.8486 11.6532 17.8486 12.0042Z" fill="black"/>
</svg>
