<svg width="24" height="24" viewBox="0 0 24 24" fill="none" xmlns="http://www.w3.org/2000/svg">
<g clip-path="url(#clip0_1_909)">
<path fill-rule="evenodd" clip-rule="evenodd" d="M3.8678 10.106C3.80485 9.51509 4.26797 9.00002 4.86217 9.00002L19.1278 9.00002C19.722 9.00002 20.1851 9.51509 20.1222 10.106L19.038 20.2833C18.8478 22.0685 17.2341 23.4288 15.3064 23.4288L8.68355 23.4288C6.75585 23.4288 5.14219 22.0685 4.952 20.2833L3.8678 10.106ZM15.0576 11.7522C15.4706 11.784 15.7796 12.1445 15.7478 12.5575L15.2478 19.0575C15.2161 19.4705 14.8555 19.7796 14.4425 19.7478C14.0295 19.716 13.7205 19.3555 13.7522 18.9425L14.2522 12.4425C14.284 12.0295 14.6446 11.7204 15.0576 11.7522ZM8.25217 12.5575C8.2204 12.1445 8.52945 11.784 8.94244 11.7522C9.35543 11.7204 9.71599 12.0295 9.74775 12.4425L10.2478 18.9425C10.2795 19.3555 9.97048 19.716 9.55749 19.7478C9.14449 19.7796 8.78394 19.4705 8.75217 19.0575L8.25217 12.5575Z" fill="black"/>
<path d="M15 3.99997C15.1381 3.99997 15.25 3.88804 15.25 3.74997C15.25 2.23119 14.0188 0.999969 12.5 0.999969L11.5 0.99997C9.98122 0.999969 8.75 2.23119 8.75 3.74997C8.75 3.88804 8.86193 3.99997 9 3.99997L15 3.99997Z" fill="black"/>
<path fill-rule="evenodd" clip-rule="evenodd" d="M3.8005 8.04749C2.64817 6.83718 3.63178 5 5.4321 5H18.5679C20.3682 5 21.3518 6.83718 20.1995 8.04749C19.9265 8.33421 19.522 8.5 19.0956 8.5H4.90442C4.47793 8.5 4.07348 8.33421 3.8005 8.04749Z" fill="black"/>
</g>
<defs>
<clipPath id="clip0_1_909">
<rect width="24" height="24" fill="white" transform="translate(0 24) rotate(-90)"/>
</clipPath>
</defs>
</svg>
