<svg width="47" height="26" viewBox="0 0 47 26" fill="none" xmlns="http://www.w3.org/2000/svg">
<path d="M5.15625 21C4.76042 19.6458 4.33333 18.0521 3.875 16.2188C3.47917 14.6562 3.02083 12.75 2.5 10.5C1.97917 8.25 1.42708 5.66667 0.84375 2.75C0.84375 2.54167 0.958333 2.30208 1.1875 2.03125C1.41667 1.73958 1.6875 1.46875 2 1.21875C2.33333 0.96875 2.67708 0.75 3.03125 0.5625C3.38542 0.375 3.6875 0.28125 3.9375 0.28125C4.08333 0.447917 4.28125 1.15625 4.53125 2.40625C4.63542 2.94792 4.76042 3.625 4.90625 4.4375C5.07292 5.25 5.25 6.26042 5.4375 7.46875C5.625 8.65625 5.83333 10.0521 6.0625 11.6562C6.29167 13.2604 6.55208 15.125 6.84375 17.25C7.05208 15.8125 7.26042 14.4583 7.46875 13.1875C7.67708 11.8958 7.86458 10.75 8.03125 9.75C8.23958 8.60417 8.42708 7.54167 8.59375 6.5625C8.67708 5.95833 8.77083 5.32292 8.875 4.65625C9 3.96875 9.125 3.34375 9.25 2.78125C9.375 2.21875 9.5 1.75 9.625 1.375C9.77083 1 9.92708 0.8125 10.0938 0.8125C10.2396 0.791667 10.4792 0.8125 10.8125 0.875C11.1667 0.9375 11.5104 1.03125 11.8438 1.15625C12.1771 1.26042 12.4688 1.38542 12.7188 1.53125C12.9896 1.67708 13.125 1.82292 13.125 1.96875C13.125 2.05208 13.0417 2.44792 12.875 3.15625C12.7292 3.86458 12.5104 4.77083 12.2188 5.875C11.9479 6.95833 11.6354 8.1875 11.2812 9.5625C10.9479 10.9375 10.5833 12.3438 10.1875 13.7812C9.8125 15.1979 9.4375 16.5833 9.0625 17.9375C8.6875 19.2917 8.34375 20.5 8.03125 21.5625C7.71875 22.6042 7.44792 23.4479 7.21875 24.0938C7.01042 24.7396 6.86458 25.0625 6.78125 25.0625C6.69792 25.0625 6.47917 24.6979 6.125 23.9688C5.77083 23.2188 5.44792 22.2292 5.15625 21ZM21.1875 4.5625C20.8333 4.58333 20.4792 4.59375 20.125 4.59375C19.7917 4.57292 19.4792 4.5625 19.1875 4.5625C18.8542 4.5625 18.5417 4.55208 18.25 4.53125C18.2917 5.63542 18.3021 6.92708 18.2812 8.40625C18.2812 9.86458 18.2604 11.3646 18.2188 12.9062C18.1979 14.4479 18.1562 15.9583 18.0938 17.4375C18.0521 18.8958 18 20.1875 17.9375 21.3125C18.7292 21.2917 19.4271 21.2917 20.0312 21.3125C20.6354 21.3333 20.9583 21.3646 21 21.4062C21.0417 21.4688 21.0417 21.6771 21 22.0312C20.9583 22.3646 20.8958 22.7396 20.8125 23.1562C20.7292 23.5521 20.6458 23.9167 20.5625 24.25C20.4792 24.6042 20.4167 24.8229 20.375 24.9062C19.7917 24.9271 19.25 24.9271 18.75 24.9062C18.2708 24.9062 17.8542 24.8854 17.5 24.8438C17.0833 24.8229 16.7083 24.7917 16.375 24.75C16.0417 24.6875 15.6875 24.6146 15.3125 24.5312C15 24.4479 14.6354 24.3438 14.2188 24.2188C13.8229 24.0938 13.4167 23.9375 13 23.75C12.9167 23.7083 12.8125 23.5938 12.6875 23.4062C12.5833 23.2188 12.4688 23.0208 12.3438 22.8125C12.2396 22.5833 12.1562 22.3646 12.0938 22.1562C12.0104 21.9479 11.9688 21.8021 11.9688 21.7188C11.9688 21.6979 12.0625 21.6771 12.25 21.6562C12.4375 21.6146 12.6979 21.5833 13.0312 21.5625C13.3646 21.5208 13.7396 21.4896 14.1562 21.4688C14.5729 21.4271 15.0208 21.3958 15.5 21.375C15.4583 20.7708 15.3958 19.9792 15.3125 19C15.25 18 15.1771 16.9271 15.0938 15.7812C15.0312 14.6146 14.9583 13.4271 14.875 12.2188C14.8125 10.9896 14.7604 9.85417 14.7188 8.8125C14.6771 7.75 14.6562 6.82292 14.6562 6.03125C14.6562 5.23958 14.6875 4.6875 14.75 4.375C14.7708 4.33333 14.7812 4.30208 14.7812 4.28125C14.7812 4.23958 14.7917 4.19792 14.8125 4.15625L13.9375 3.9375C13.6875 3.875 13.4167 3.80208 13.125 3.71875C12.8333 3.63542 12.5417 3.54167 12.25 3.4375C12.1667 3.39583 12.0625 3.28125 11.9375 3.09375C11.7917 2.90625 11.6562 2.69792 11.5312 2.46875C11.3854 2.23958 11.2708 2.03125 11.1875 1.84375C11.0833 1.63542 11.0312 1.48958 11.0312 1.40625C11.0312 1.36458 11.3021 1.32292 11.8438 1.28125C12.3646 1.21875 13.0208 1.16667 13.8125 1.125C14.6042 1.08333 15.4583 1.05208 16.375 1.03125C17.3125 1.01042 18.1771 1 18.9688 1C19.7812 1 20.4583 1.01042 21 1.03125C21.5625 1.03125 21.8646 1.05208 21.9062 1.09375C21.9688 1.15625 21.9688 1.36458 21.9062 1.71875C21.8646 2.05208 21.7917 2.42708 21.6875 2.84375C21.6042 3.23958 21.5104 3.61458 21.4062 3.96875C21.3229 4.30208 21.25 4.5 21.1875 4.5625ZM33.9375 2.09375C33.9792 2.17708 34 2.46875 34 2.96875C34.0208 3.46875 34.0208 4.07292 34 4.78125C34 5.48958 33.9792 6.25 33.9375 7.0625C33.8958 7.85417 33.8438 8.60417 33.7812 9.3125C33.6562 10.8958 33.5104 12.4583 33.3438 14C33.1771 15.5417 33.0104 16.9271 32.8438 18.1562C32.6979 19.3854 32.5521 20.3958 32.4062 21.1875C32.2812 21.9583 32.2083 22.3854 32.1875 22.4688C32.1458 22.5729 32.0521 22.7292 31.9062 22.9375C31.7604 23.1458 31.6042 23.3542 31.4375 23.5625C31.2708 23.75 31.1042 23.9167 30.9375 24.0625C30.7917 24.2083 30.6771 24.2812 30.5938 24.2812C30.4271 24.1354 30.125 23.5625 29.6875 22.5625C29.5 22.125 29.2708 21.5833 29 20.9375C28.7292 20.2708 28.4167 19.4583 28.0625 18.5C27.7083 17.5417 27.2917 16.4167 26.8125 15.125C26.3542 13.8125 25.8333 12.2917 25.25 10.5625C25.375 12.2708 25.4792 13.7708 25.5625 15.0625C25.6458 16.3542 25.7083 17.4792 25.75 18.4375C25.8125 19.3958 25.8542 20.2083 25.875 20.875C25.8958 21.5208 25.9062 22.0625 25.9062 22.5C25.9062 23.5 25.875 24.0729 25.8125 24.2188C25.6042 24.2188 25.375 24.125 25.125 23.9375C24.8958 23.7292 24.6771 23.4896 24.4688 23.2188C24.2604 22.9271 24.0729 22.6458 23.9062 22.375C23.7604 22.1042 23.6771 21.9062 23.6562 21.7812C23.6354 21.6979 23.5729 21.3125 23.4688 20.625C23.3646 19.9375 23.2396 19.0625 23.0938 18C22.9688 16.9167 22.8229 15.7083 22.6562 14.375C22.5104 13.0208 22.3646 11.6458 22.2188 10.25C22.0938 8.85417 21.9896 7.5 21.9062 6.1875C21.8229 4.85417 21.7812 3.66667 21.7812 2.625C21.7812 2.45833 21.9896 2.23958 22.4062 1.96875C22.8229 1.67708 23.2917 1.40625 23.8125 1.15625C24.3542 0.885417 24.8542 0.65625 25.3125 0.46875C25.7708 0.260417 26.0521 0.15625 26.1562 0.15625C26.2396 0.15625 26.3229 0.395833 26.4062 0.875C26.5104 1.35417 26.6146 1.95833 26.7188 2.6875C26.8438 3.41667 26.9792 4.22917 27.125 5.125C27.2917 6.02083 27.4688 6.875 27.6562 7.6875C27.8229 8.5625 28.0312 9.55208 28.2812 10.6562C28.4896 11.5938 28.75 12.7188 29.0625 14.0312C29.3958 15.3438 29.7812 16.8021 30.2188 18.4062C30.2188 17.2812 30.2188 16.0833 30.2188 14.8125C30.2396 13.5417 30.2604 12.2812 30.2812 11.0312C30.3021 9.78125 30.3229 8.58333 30.3438 7.4375C30.3854 6.27083 30.4167 5.23958 30.4375 4.34375C30.4792 3.44792 30.5104 2.72917 30.5312 2.1875C30.5729 1.64583 30.6042 1.35417 30.625 1.3125C30.6875 1.22917 30.8854 1.20833 31.2188 1.25C31.5521 1.27083 31.9167 1.33333 32.3125 1.4375C32.7083 1.52083 33.0625 1.63542 33.375 1.78125C33.7083 1.90625 33.8958 2.01042 33.9375 2.09375ZM36.25 3.875C36.3542 3.6875 36.5729 3.44792 36.9062 3.15625C37.2396 2.84375 37.6354 2.53125 38.0938 2.21875C38.5729 1.90625 39.0833 1.625 39.625 1.375C40.1667 1.10417 40.7083 0.927083 41.25 0.84375C41.8125 0.739583 42.3333 0.760417 42.8125 0.90625C43.3125 1.03125 43.7396 1.32292 44.0938 1.78125C44.2812 2.01042 44.4583 2.46875 44.625 3.15625C44.7917 3.84375 44.9479 4.67708 45.0938 5.65625C45.2604 6.61458 45.4062 7.6875 45.5312 8.875C45.6562 10.0417 45.7604 11.2396 45.8438 12.4688C45.9271 13.6771 45.9792 14.875 46 16.0625C46.0417 17.2292 46.0417 18.3125 46 19.3125C45.9792 20.2917 45.9167 21.1354 45.8125 21.8438C45.7292 22.5312 45.5938 23.0104 45.4062 23.2812C45.0312 23.8229 44.4479 24.1875 43.6562 24.375C42.8646 24.5625 42.0312 24.5625 41.1562 24.375C40.2812 24.2083 39.4479 23.8542 38.6562 23.3125C37.8646 22.7708 37.2812 22.0417 36.9062 21.125C36.6562 20.5208 36.4479 19.6979 36.2812 18.6562C36.1354 17.6146 36.0208 16.4896 35.9375 15.2812C35.8542 14.0521 35.8021 12.8021 35.7812 11.5312C35.7812 10.2604 35.7917 9.09375 35.8125 8.03125C35.8542 6.94792 35.9062 6.03125 35.9688 5.28125C36.0521 4.53125 36.1458 4.0625 36.25 3.875ZM42.375 19.7188C42.5 19.5938 42.5833 19.2604 42.625 18.7188C42.6875 18.1562 42.7188 17.5 42.7188 16.75C42.7396 15.9792 42.7396 15.1667 42.7188 14.3125C42.7188 13.4583 42.7188 12.6667 42.7188 11.9375C42.7188 10.0833 42.6562 8.64583 42.5312 7.625C42.4062 6.60417 42.2604 5.84375 42.0938 5.34375C41.9062 4.76042 41.6979 4.39583 41.4688 4.25C41.1562 4.3125 40.8958 4.41667 40.6875 4.5625C40.4792 4.6875 40.3125 4.83333 40.1875 5C40.0417 5.1875 39.9271 5.38542 39.8438 5.59375C39.7812 5.78125 39.7083 6.14583 39.625 6.6875C39.5625 7.22917 39.5 7.875 39.4375 8.625C39.375 9.35417 39.3125 10.1562 39.25 11.0312C39.2083 11.8854 39.1667 12.7292 39.125 13.5625C39.1042 14.3958 39.0833 15.1875 39.0625 15.9375C39.0625 16.6667 39.0729 17.2708 39.0938 17.75C39.1354 18.4792 39.3021 19.0104 39.5938 19.3438C39.9062 19.6771 40.2396 19.8958 40.5938 20C40.9479 20.0833 41.2917 20.0833 41.625 20C41.9792 19.9167 42.2292 19.8229 42.375 19.7188Z" fill="#7E003F"/>
</svg>
