<svg width="69" height="38" viewBox="0 0 69 38" fill="none" xmlns="http://www.w3.org/2000/svg">
<path d="M7.23438 31.5C6.64062 29.4688 6 27.0781 5.3125 24.3281C4.71875 21.9844 4.03125 19.125 3.25 15.75C2.46875 12.375 1.64062 8.5 0.765625 4.125C0.765625 3.8125 0.9375 3.45312 1.28125 3.04688C1.625 2.60937 2.03125 2.20312 2.5 1.82812C3 1.45312 3.51562 1.125 4.04688 0.84375C4.57812 0.5625 5.03125 0.421875 5.40625 0.421875C5.625 0.671875 5.92188 1.73438 6.29688 3.60938C6.45312 4.42188 6.64062 5.4375 6.85938 6.65625C7.10938 7.875 7.375 9.39062 7.65625 11.2031C7.9375 12.9844 8.25 15.0781 8.59375 17.4844C8.9375 19.8906 9.32812 22.6875 9.76562 25.875C10.0781 23.7188 10.3906 21.6875 10.7031 19.7812C11.0156 17.8438 11.2969 16.125 11.5469 14.625C11.8594 12.9062 12.1406 11.3125 12.3906 9.84375C12.5156 8.9375 12.6562 7.98438 12.8125 6.98438C13 5.95312 13.1875 5.01562 13.375 4.17188C13.5625 3.32812 13.75 2.625 13.9375 2.0625C14.1562 1.5 14.3906 1.21875 14.6406 1.21875C14.8594 1.1875 15.2188 1.21875 15.7188 1.3125C16.25 1.40625 16.7656 1.54688 17.2656 1.73438C17.7656 1.89063 18.2031 2.07813 18.5781 2.29688C18.9844 2.51562 19.1875 2.73438 19.1875 2.95312C19.1875 3.07812 19.0625 3.67188 18.8125 4.73438C18.5938 5.79687 18.2656 7.15625 17.8281 8.8125C17.4219 10.4375 16.9531 12.2812 16.4219 14.3438C15.9219 16.4062 15.375 18.5156 14.7812 20.6719C14.2188 22.7969 13.6562 24.875 13.0938 26.9062C12.5312 28.9375 12.0156 30.75 11.5469 32.3438C11.0781 33.9062 10.6719 35.1719 10.3281 36.1406C10.0156 37.1094 9.79688 37.5938 9.67188 37.5938C9.54688 37.5938 9.21875 37.0469 8.6875 35.9531C8.15625 34.8281 7.67188 33.3438 7.23438 31.5ZM31.2812 6.84375C30.75 6.875 30.2188 6.89062 29.6875 6.89062C29.1875 6.85938 28.7188 6.84375 28.2812 6.84375C27.7812 6.84375 27.3125 6.82812 26.875 6.79688C26.9375 8.45312 26.9531 10.3906 26.9219 12.6094C26.9219 14.7969 26.8906 17.0469 26.8281 19.3594C26.7969 21.6719 26.7344 23.9375 26.6406 26.1562C26.5781 28.3438 26.5 30.2812 26.4062 31.9688C27.5938 31.9375 28.6406 31.9375 29.5469 31.9688C30.4531 32 30.9375 32.0469 31 32.1094C31.0625 32.2031 31.0625 32.5156 31 33.0469C30.9375 33.5469 30.8438 34.1094 30.7188 34.7344C30.5938 35.3281 30.4688 35.875 30.3438 36.375C30.2188 36.9062 30.125 37.2344 30.0625 37.3594C29.1875 37.3906 28.375 37.3906 27.625 37.3594C26.9062 37.3594 26.2812 37.3281 25.75 37.2656C25.125 37.2344 24.5625 37.1875 24.0625 37.125C23.5625 37.0312 23.0312 36.9219 22.4688 36.7969C22 36.6719 21.4531 36.5156 20.8281 36.3281C20.2344 36.1406 19.625 35.9062 19 35.625C18.875 35.5625 18.7188 35.3906 18.5312 35.1094C18.375 34.8281 18.2031 34.5312 18.0156 34.2188C17.8594 33.875 17.7344 33.5469 17.6406 33.2344C17.5156 32.9219 17.4531 32.7031 17.4531 32.5781C17.4531 32.5469 17.5938 32.5156 17.875 32.4844C18.1562 32.4219 18.5469 32.375 19.0469 32.3438C19.5469 32.2812 20.1094 32.2344 20.7344 32.2031C21.3594 32.1406 22.0312 32.0938 22.75 32.0625C22.6875 31.1562 22.5938 29.9688 22.4688 28.5C22.375 27 22.2656 25.3906 22.1406 23.6719C22.0469 21.9219 21.9375 20.1406 21.8125 18.3281C21.7188 16.4844 21.6406 14.7812 21.5781 13.2188C21.5156 11.625 21.4844 10.2344 21.4844 9.04688C21.4844 7.85938 21.5312 7.03125 21.625 6.5625C21.6562 6.5 21.6719 6.45312 21.6719 6.42188C21.6719 6.35938 21.6875 6.29688 21.7188 6.23438L20.4062 5.90625C20.0312 5.8125 19.625 5.70312 19.1875 5.57812C18.75 5.45313 18.3125 5.3125 17.875 5.15625C17.75 5.09375 17.5938 4.92188 17.4062 4.64062C17.1875 4.35938 16.9844 4.04688 16.7969 3.70312C16.5781 3.35937 16.4062 3.04688 16.2812 2.76562C16.125 2.45313 16.0469 2.23437 16.0469 2.10938C16.0469 2.04687 16.4531 1.98438 17.2656 1.92188C18.0469 1.82812 19.0312 1.75 20.2188 1.6875C21.4062 1.625 22.6875 1.57812 24.0625 1.54688C25.4688 1.51563 26.7656 1.5 27.9531 1.5C29.1719 1.5 30.1875 1.51563 31 1.54688C31.8438 1.54688 32.2969 1.57812 32.3594 1.64062C32.4531 1.73438 32.4531 2.04687 32.3594 2.57812C32.2969 3.07812 32.1875 3.64062 32.0312 4.26562C31.9062 4.85937 31.7656 5.42187 31.6094 5.95312C31.4844 6.45312 31.375 6.75 31.2812 6.84375ZM50.4062 3.14062C50.4688 3.26562 50.5 3.70312 50.5 4.45312C50.5312 5.20312 50.5312 6.10938 50.5 7.17188C50.5 8.23438 50.4688 9.375 50.4062 10.5938C50.3438 11.7812 50.2656 12.9062 50.1719 13.9688C49.9844 16.3438 49.7656 18.6875 49.5156 21C49.2656 23.3125 49.0156 25.3906 48.7656 27.2344C48.5469 29.0781 48.3281 30.5938 48.1094 31.7812C47.9219 32.9375 47.8125 33.5781 47.7812 33.7031C47.7188 33.8594 47.5781 34.0938 47.3594 34.4062C47.1406 34.7188 46.9062 35.0312 46.6562 35.3438C46.4062 35.625 46.1562 35.875 45.9062 36.0938C45.6875 36.3125 45.5156 36.4219 45.3906 36.4219C45.1406 36.2031 44.6875 35.3438 44.0312 33.8438C43.75 33.1875 43.4062 32.375 43 31.4062C42.5938 30.4062 42.125 29.1875 41.5938 27.75C41.0625 26.3125 40.4375 24.625 39.7188 22.6875C39.0312 20.7188 38.25 18.4375 37.375 15.8438C37.5625 18.4062 37.7188 20.6562 37.8438 22.5938C37.9688 24.5312 38.0625 26.2188 38.125 27.6562C38.2188 29.0938 38.2812 30.3125 38.3125 31.3125C38.3438 32.2812 38.3594 33.0938 38.3594 33.75C38.3594 35.25 38.3125 36.1094 38.2188 36.3281C37.9062 36.3281 37.5625 36.1875 37.1875 35.9062C36.8438 35.5938 36.5156 35.2344 36.2031 34.8281C35.8906 34.3906 35.6094 33.9688 35.3594 33.5625C35.1406 33.1562 35.0156 32.8594 34.9844 32.6719C34.9531 32.5469 34.8594 31.9688 34.7031 30.9375C34.5469 29.9062 34.3594 28.5938 34.1406 27C33.9531 25.375 33.7344 23.5625 33.4844 21.5625C33.2656 19.5312 33.0469 17.4688 32.8281 15.375C32.6406 13.2812 32.4844 11.25 32.3594 9.28125C32.2344 7.28125 32.1719 5.5 32.1719 3.9375C32.1719 3.6875 32.4844 3.35937 33.1094 2.95312C33.7344 2.51562 34.4375 2.10938 35.2188 1.73438C36.0312 1.32813 36.7812 0.984375 37.4688 0.703125C38.1562 0.390625 38.5781 0.234375 38.7344 0.234375C38.8594 0.234375 38.9844 0.59375 39.1094 1.3125C39.2656 2.03125 39.4219 2.9375 39.5781 4.03125C39.7656 5.125 39.9688 6.34375 40.1875 7.6875C40.4375 9.03125 40.7031 10.3125 40.9844 11.5312C41.2344 12.8438 41.5469 14.3281 41.9219 15.9844C42.2344 17.3906 42.625 19.0781 43.0938 21.0469C43.5938 23.0156 44.1719 25.2031 44.8281 27.6094C44.8281 25.9219 44.8281 24.125 44.8281 22.2188C44.8594 20.3125 44.8906 18.4219 44.9219 16.5469C44.9531 14.6719 44.9844 12.875 45.0156 11.1562C45.0781 9.40625 45.125 7.85938 45.1562 6.51562C45.2188 5.17188 45.2656 4.09375 45.2969 3.28125C45.3594 2.46875 45.4062 2.03125 45.4375 1.96875C45.5312 1.84375 45.8281 1.8125 46.3281 1.875C46.8281 1.90625 47.375 2 47.9688 2.15625C48.5625 2.28125 49.0938 2.45313 49.5625 2.67188C50.0625 2.85938 50.3438 3.01563 50.4062 3.14062ZM53.875 5.8125C54.0312 5.53125 54.3594 5.17188 54.8594 4.73438C55.3594 4.26562 55.9531 3.79688 56.6406 3.32812C57.3594 2.85938 58.125 2.4375 58.9375 2.0625C59.75 1.65625 60.5625 1.39062 61.375 1.26562C62.2188 1.10937 63 1.14063 63.7188 1.35938C64.4688 1.54688 65.1094 1.98438 65.6406 2.67188C65.9219 3.01563 66.1875 3.70312 66.4375 4.73438C66.6875 5.76562 66.9219 7.01562 67.1406 8.48438C67.3906 9.92188 67.6094 11.5312 67.7969 13.3125C67.9844 15.0625 68.1406 16.8594 68.2656 18.7031C68.3906 20.5156 68.4688 22.3125 68.5 24.0938C68.5625 25.8438 68.5625 27.4688 68.5 28.9688C68.4688 30.4375 68.375 31.7031 68.2188 32.7656C68.0938 33.7969 67.8906 34.5156 67.6094 34.9219C67.0469 35.7344 66.1719 36.2812 64.9844 36.5625C63.7969 36.8438 62.5469 36.8438 61.2344 36.5625C59.9219 36.3125 58.6719 35.7812 57.4844 34.9688C56.2969 34.1562 55.4219 33.0625 54.8594 31.6875C54.4844 30.7812 54.1719 29.5469 53.9219 27.9844C53.7031 26.4219 53.5312 24.7344 53.4062 22.9219C53.2812 21.0781 53.2031 19.2031 53.1719 17.2969C53.1719 15.3906 53.1875 13.6406 53.2188 12.0469C53.2812 10.4219 53.3594 9.04688 53.4531 7.92188C53.5781 6.79688 53.7188 6.09375 53.875 5.8125ZM63.0625 29.5781C63.25 29.3906 63.375 28.8906 63.4375 28.0781C63.5312 27.2344 63.5781 26.25 63.5781 25.125C63.6094 23.9688 63.6094 22.75 63.5781 21.4688C63.5781 20.1875 63.5781 19 63.5781 17.9062C63.5781 15.125 63.4844 12.9688 63.2969 11.4375C63.1094 9.90625 62.8906 8.76562 62.6406 8.01562C62.3594 7.14062 62.0469 6.59375 61.7031 6.375C61.2344 6.46875 60.8438 6.625 60.5312 6.84375C60.2188 7.03125 59.9688 7.25 59.7812 7.5C59.5625 7.78125 59.3906 8.07812 59.2656 8.39062C59.1719 8.67188 59.0625 9.21875 58.9375 10.0312C58.8438 10.8438 58.75 11.8125 58.6562 12.9375C58.5625 14.0312 58.4688 15.2344 58.375 16.5469C58.3125 17.8281 58.25 19.0938 58.1875 20.3438C58.1562 21.5938 58.125 22.7812 58.0938 23.9062C58.0938 25 58.1094 25.9062 58.1406 26.625C58.2031 27.7188 58.4531 28.5156 58.8906 29.0156C59.3594 29.5156 59.8594 29.8438 60.3906 30C60.9219 30.125 61.4375 30.125 61.9375 30C62.4688 29.875 62.8438 29.7344 63.0625 29.5781Z" fill="#7E003F"/>
</svg>
